<?xml version="1.0" encoding="UTF-8" standalone="no"?>
<svg width="450px" height="133px" viewBox="0 0 450 133" version="1.1" xmlns="http://www.w3.org/2000/svg" xmlns:xlink="http://www.w3.org/1999/xlink" xmlns:sketch="http://www.bohemiancoding.com/sketch/ns">
    <!-- Generator: Sketch 3.2.2 (9983) - http://www.bohemiancoding.com/sketch -->
    <title>logo</title>
    <desc>Created with Sketch.</desc>
    <defs></defs>
    <g id="Page-1" stroke="none" stroke-width="1" fill="none" fill-rule="evenodd" sketch:type="MSPage">
        <g id="logo" sketch:type="MSLayerGroup" fill="#FFFFFF">
            <path d="M43.1,0.3 C52.1,0.3 55,6.8 57.4,13.3 C58.4,16 81.9,80.3 82.6,82.3 C82.8,82.8 82.7,83.7 81.8,84 C81,84.3 68.8,89.1 68.1,89.3 C67.4,89.6 66.7,89.2 66.4,88.5 C66.2,87.8 61.1,73.8 60.5,72.2 L25.7,72.2 C25.1,73.8 20,87.8 19.8,88.5 C19.6,89.1 18.8,89.6 18.1,89.3 C17.4,89 5.1,84.3 4.4,84 C3.7,83.7 3.4,82.9 3.6,82.3 C4.5,79.9 27.6,16.6 28.8,13.3 C31.2,6.9 34.1,0.3 43.1,0.3 L43.1,0.3 Z M1.8,115.3 C1.1,115.3 0.5,115.9 0.5,116.7 L0.5,131.7 C0.5,132.4 1.1,133 1.8,133 L84.4,133 C85.1,133 85.7,132.4 85.7,131.7 L85.7,116.7 C85.7,116 85.1,115.3 84.4,115.3 L1.8,115.3 L1.8,115.3 Z M43.1,21.3 L31.3,56.6 L55,56.6 L43.2,21.3 L43.1,21.3 L43.1,21.3 Z M350.4,73.1 C350.4,77.1 348.2,79.7 344.1,79.7 C342.5,79.7 341.2,79.7 339.1,79.1 L339.1,67 C340,66.8 341.9,66.5 344.1,66.6 C348.3,66.9 350.4,68.8 350.4,73.1 L350.4,73.1 Z M358.8,72.5 C358.8,65.1 354.5,60 345.3,60 C343.1,60 341.5,60.2 339.1,60.8 L339.1,50.1 C340.6,49.9 343.2,49.7 346,49.7 C348.7,49.7 352.1,49.8 355.1,50.2 L355.3,44 C351.9,43.2 347,42.8 343.2,42.8 C339.4,42.8 333.6,43.7 330.8,44.5 L330.8,83.9 C335.1,85.5 339.4,86.2 343.7,86.2 C353.6,86.3 358.8,81 358.8,72.5 L358.8,72.5 Z M263.9,70.4 C263.9,75.9 261.7,79.4 258.1,79.4 C256.6,79.4 255.8,79.3 254.1,78.8 L254.1,62.3 C256,61.4 257,61.4 258.5,61.4 C262.1,61.4 263.9,64.4 263.9,70.4 L263.9,70.4 Z M236.4,70.6 C236.4,64.6 238.2,61.4 241.8,61.4 C243.3,61.4 244.3,61.4 246.2,62.3 L246.2,78.8 C244.5,79.4 243.7,79.4 242.2,79.4 C238.1,79.4 236.4,76.1 236.4,70.6 L236.4,70.6 Z M254.1,95.3 L254.1,84.6 C255.1,85.2 257.1,86.1 260.4,86.1 C267.1,86.1 272,80.6 272,70.5 C272,59.6 267.1,54.9 259.1,54.9 C257.1,54.9 255.7,55.1 254.1,55.9 L254.1,43 L246.3,43 L246.3,55.8 C244.7,55 243.3,54.8 241.3,54.8 C233.3,54.8 228.4,59.7 228.4,70.5 C228.4,80.6 232.8,86 240,86 C243.4,86 245.3,85.1 246.3,84.5 L246.3,95.2 L254.1,95.2 L254.1,95.3 Z M194.6,85.5 L194.6,56.7 C190.3,55.4 187,54.9 182.6,54.9 C178.3,54.9 175,55.5 170.7,56.7 L170.7,71.5 C170.7,75.5 170.6,76.7 170.2,78 C169.8,79.1 169.2,80.5 167.6,81.6 L169.7,86.2 C176,84.4 178.4,81.7 178.4,72.9 L178.4,62 C180.5,61.7 180.9,61.6 182.6,61.6 C184.3,61.6 184.6,61.7 186.7,62 L186.7,85.5 L194.6,85.5 L194.6,85.5 Z M291.4,79.2 C289.7,79.8 288.5,79.9 287.2,79.9 C284.4,79.9 282.8,78.8 282.8,75.9 C282.8,72.9 284.8,71.9 288.7,71.9 C289.6,71.9 290.6,72 291,72.2 L291,74.4 C291,76.7 291.1,78.2 291.4,79.2 L291.4,79.2 Z M301.4,82.6 C299.3,79.4 298.8,77.6 298.8,73.6 L298.8,65.5 C298.8,61.1 298.3,59.5 297.1,58 C295.5,55.8 292.8,54.8 287.9,54.8 C284.4,54.8 281,55.2 277.8,56 L279,61.8 C281.2,61.5 283.5,61.2 285.2,61.2 C290.4,61.2 291,62 291,65.9 L291,67.4 C289.8,67.1 288.5,66.9 287,66.9 C279.1,66.9 275,70.7 275,77.1 C275,83 279.4,86.3 284.8,86.3 C286.8,86.3 288.9,85.9 290.6,85.3 C291.6,84.9 292,84.6 293.3,83.8 C294.1,85 295.6,86.1 296.3,86.3 L301.4,82.6 L301.4,82.6 Z M378.2,79.2 C376.5,79.8 375.3,79.9 374,79.9 C371.2,79.9 369.6,78.8 369.6,75.9 C369.6,72.9 371.6,71.9 375.5,71.9 C376.4,71.9 377.4,72 377.8,72.2 L377.8,74.4 C377.8,76.7 377.9,78.2 378.2,79.2 L378.2,79.2 Z M388.2,82.6 C386.1,79.4 385.6,77.6 385.6,73.6 L385.6,65.5 C385.6,61.1 385.1,59.5 384,58 C382.4,55.8 379.7,54.8 374.8,54.8 C371.3,54.8 367.9,55.2 364.7,56 L365.9,61.8 C368.1,61.5 370.4,61.2 372.1,61.2 C377.3,61.2 377.9,62 377.9,65.9 L377.9,67.4 C376.7,67.1 375.4,66.9 373.9,66.9 C366,66.9 361.9,70.7 361.9,77.1 C361.9,83 366.3,86.3 371.7,86.3 C373.7,86.3 375.8,85.9 377.5,85.3 C378.5,84.9 378.9,84.6 380.2,83.8 C381,85 382.6,86.1 383.2,86.3 L388.2,82.6 L388.2,82.6 Z M216.9,75.2 C216.9,78.2 215.9,80.2 212.1,80.2 C210.8,80.2 210.3,80.2 208.7,79.7 L208.7,71 C210.7,70.6 210.9,70.5 212.1,70.5 C215.7,70.6 216.9,72.3 216.9,75.2 L216.9,75.2 Z M200.8,55.3 L200.8,83.9 C204.5,85.5 208.6,86.2 212.3,86.2 C220.6,86.2 225.1,81.9 225.1,74.8 C225.1,68.4 221.1,64.4 213.8,64.4 C211.9,64.4 210.8,64.6 208.8,65.1 L208.8,55.3 L200.8,55.3 L200.8,55.3 Z M416.9,85.5 L416.9,55.6 L409,55.6 L409,66.9 L400.1,66.9 L400.1,55.6 L392.2,55.6 L392.2,85.5 L400.1,85.5 L400.1,73.3 L409,73.3 L409,85.5 L416.9,85.5 L416.9,85.5 Z M449.2,85.5 C449.2,85.5 444.9,76.3 443.9,74.3 C442.7,72 441.6,70.3 439.2,69.8 L439.2,69.7 C440.8,69.4 442.1,68.4 443.5,65.4 C444.8,62.5 445.2,61.8 446,61.2 C446.8,60.5 447.8,60.8 447.8,60.8 L448.2,55.4 C447.1,55.3 445.8,55.2 444.5,55.3 C442.4,55.4 441.3,56 440.2,57.1 C439.4,57.9 438.8,59.1 438.1,60.5 C437.4,62 436.8,63.2 436,64.8 C435.2,66.4 434.9,67.1 432.8,67.1 L431.5,67.1 L431.5,55.8 L423.6,55.8 L423.6,85.7 L431.5,85.7 L431.5,73.5 L432.6,73.5 C434.8,73.5 435.2,74.1 436.4,76.4 C437.8,79.2 440.5,85.7 440.5,85.7 L449.2,85.7 L449.2,85.5 Z M156.1,85.5 L165.2,85.5 L151.5,43.7 C150.1,43.2 148.3,42.9 146.4,42.9 C144.3,42.9 143.6,43.2 142,43.7 L127.5,85.5 L136.2,85.5 C136.2,85.5 137.4,81.8 138.8,77.3 L153.8,77.3 C155,81.9 156.1,85.5 156.1,85.5 L156.1,85.5 Z M140.9,70.3 C140.9,70.3 143.4,61.9 143.8,60.6 C144.8,57.2 146.3,51.8 146.3,51.8 L146.5,51.8 C146.5,51.8 147.9,57.4 148.8,60.5 C149.2,61.7 151.5,70.2 151.5,70.2 L140.9,70.2 L140.9,70.3 Z M314.8,65.5 C312,65.5 309.8,67.8 309.8,70.5 C309.8,73.3 312,75.5 314.8,75.5 C317.6,75.5 319.8,73.3 319.8,70.5 C319.8,67.8 317.6,65.5 314.8,65.5 L314.8,65.5 Z" id="Shape" sketch:type="MSShapeGroup"></path>
        </g>
    </g>
</svg>