<?xml version="1.0" encoding="UTF-8" standalone="no"?>
<svg width="11px" height="11px" viewBox="0 0 11 11" version="1.1" xmlns="http://www.w3.org/2000/svg" xmlns:xlink="http://www.w3.org/1999/xlink" xmlns:sketch="http://www.bohemiancoding.com/sketch/ns">
    <!-- Generator: Sketch 3.4.4 (17249) - http://www.bohemiancoding.com/sketch -->
    <title>wrench</title>
    <desc>Created with Sketch.</desc>
    <defs></defs>
    <g id="Page-1" stroke="none" stroke-width="1" fill="none" fill-rule="evenodd" sketch:type="MSPage">
        <g id="wrench" sketch:type="MSLayerGroup" fill="#2FA5E9">
            <g id="Group" sketch:type="MSShapeGroup">
                <path d="M4.8213774,4.24988511 L0.261232409,8.80030426 C0.0916119403,8.96954043 0.00675479744,9.17226809 0.00675479744,9.40837021 C0.00675479744,9.64896596 0.0915884861,9.84935319 0.261232409,10.0098596 L0.971002132,10.7315298 C1.14517271,10.896366 1.34828571,10.9787021 1.58036461,10.9787021 C1.8169936,10.9787021 2.01787846,10.896366 2.1830661,10.7315298 L6.74980171,6.17437021 C6.31245203,6.00057021 5.92524733,5.74555745 5.58807036,5.4092617 C5.25108102,5.07289574 4.99554797,4.68644468 4.8213774,4.24988511 L4.8213774,4.24988511 Z M2.31032836,9.28142553 C2.22540085,9.36600851 2.12497015,9.40839362 2.00894243,9.40839362 C1.8928678,9.40839362 1.7924371,9.36600851 1.70762687,9.28142553 C1.62279318,9.19677234 1.58036461,9.09657872 1.58036461,8.98075106 C1.58036461,8.86504043 1.62279318,8.76468298 1.70762687,8.67991277 C1.7924371,8.5954234 1.89279744,8.5530383 2.00894243,8.5530383 C2.12504051,8.5530383 2.22549467,8.5954234 2.31032836,8.67991277 C2.39511514,8.76465957 2.43754371,8.86501702 2.43754371,8.98075106 C2.43754371,9.09655532 2.39511514,9.19677234 2.31032836,9.28142553 L2.31032836,9.28142553 Z" id="Shape"></path>
                <path d="M10.9385267,3.10052553 C10.9005778,3.05591702 10.8480874,3.03368298 10.7812196,3.03368298 C10.7410896,3.03368298 10.5837591,3.11281277 10.3091109,3.27095532 C10.0346034,3.42905106 9.73206823,3.60942766 9.40178678,3.81215532 C9.07134115,4.01490638 8.89501279,4.12291702 8.8727548,4.13630426 L7.58028998,3.42130426 L7.58028998,1.92450851 L9.54225373,0.795159574 C9.61367164,0.746174468 9.64939232,0.683802128 9.64939232,0.608065957 C9.64939232,0.532376596 9.61367164,0.47002766 9.54225373,0.421019149 C9.3457548,0.287334043 9.10577186,0.183746809 8.82244563,0.110257447 C8.53895522,0.0367680851 8.26768443,0 8.0088209,0 C7.18297655,0 6.47651386,0.292974468 5.88955011,0.87873617 C5.30237527,1.46445106 5.00898721,2.16945745 5.00898721,2.99354468 C5.00898721,3.81765532 5.30253945,4.5226383 5.88955011,5.1084 C6.47651386,5.69411489 7.18297655,5.98708936 8.0088209,5.98708936 C8.63833049,5.98708936 9.21534968,5.80095532 9.73987846,5.42908511 C10.2643134,5.05712128 10.631629,4.5726766 10.8414264,3.97575106 C10.9440149,3.6773234 10.9953561,3.44117447 10.9953561,3.26749149 C10.9955203,3.20083617 10.9764051,3.14513404 10.9385267,3.10052553 L10.9385267,3.10052553 Z" id="Shape"></path>
            </g>
        </g>
    </g>
</svg>